<svg id="Layer_1" data-name="Layer 1" xmlns="http://www.w3.org/2000/svg" viewBox="0 0 179.23 173.11"><defs><style>.cls-1{fill:#dad9d9;}.cls-2{font-size:26px;fill:#f59090;font-family:Poppins-Medium, Poppins;font-weight:500;}.cls-3{fill:none;stroke:#dad9d9;stroke-miterlimit:10;stroke-width:6px;}.cls-4{fill:#c6c6c5;}</style></defs><path class="cls-1" d="M29.93,27.15H46.25l9.36,25.5,9.12-25.5H81V69.63H67.73V48.45L61.19,69.63H49.79L43.25,48.45V69.63H29.93Z"/><path class="cls-1" d="M58.55,79.15H72.71L58.43,121.63H41.21L26.93,79.15H41.09l8.76,29.22Z"/><path class="cls-1" d="M75.71,79.15H89v42.48H75.71Z"/><path class="cls-1" d="M123.35,89.77h-15V95h13.2v10h-13.2v6h15v10.62H95V79.15h28.32Z"/><text class="cls-2" transform="translate(26.68 146.61)">Database</text><polyline class="cls-3" points="165.78 49.51 165.78 159.32 9.53 159.32 9.53 14.64 165.78 14.64 165.78 17.18"/><path class="cls-4" d="M103,48.19c0-1.74,0-3.47,0-5.2a2.56,2.56,0,0,1,0-.39.64.64,0,0,1,1-.49c.56.3,1.11.61,1.66.93,2.52,1.45,5,2.92,7.52,4.43a1.22,1.22,0,0,0,.19.12.66.66,0,0,1,0,1.18l-2.36,1.43c-2.28,1.34-4.56,2.69-6.88,4a1.87,1.87,0,0,1-.32.15.61.61,0,0,1-.78-.51,5.65,5.65,0,0,1-.06-1Z"/><path class="cls-1" d="M108.47,70.05c-12.06,0-21.9-9.06-21.9-21.84s9.84-21.78,21.9-21.78,21.78,9,21.78,21.78A21.38,21.38,0,0,1,108.47,70.05Zm0-12.42c5.34,0,8.28-3.78,8.28-9.42s-2.94-9.48-8.28-9.48-8.34,3.72-8.34,9.48S103,57.63,108.47,57.63Z"/></svg>